<svg width="250" height="250" viewBox="0 0 250 250" fill="none" xmlns="http://www.w3.org/2000/svg">
<rect width="250" height="250" fill="#FDFDFD"/>
<path d="M5 5H245V245H5V5Z" fill="#FFFBFB" stroke="#FF0505" stroke-width="10"/>
<g style="mix-blend-mode:darken" filter="url(#filter0_d_0_1)">
<path d="M53.4148 92.5426V88.6364H80.6875V92.5426H69.2528V125H64.8494V92.5426H53.4148ZM91.8869 88.6364V125H87.4835V88.6364H91.8869ZM100.716 125V88.6364H113.429C115.962 88.6364 118.051 89.0743 119.697 89.9503C121.342 90.8144 122.567 91.9803 123.372 93.4482C124.177 94.9041 124.58 96.5199 124.58 98.2955C124.58 99.858 124.301 101.148 123.745 102.166C123.201 103.184 122.478 103.989 121.579 104.581C120.691 105.173 119.726 105.611 118.685 105.895V106.25C119.797 106.321 120.916 106.712 122.04 107.422C123.165 108.132 124.106 109.15 124.864 110.476C125.621 111.802 126 113.423 126 115.341C126 117.164 125.586 118.803 124.757 120.259C123.929 121.715 122.621 122.869 120.833 123.722C119.046 124.574 116.72 125 113.855 125H100.716ZM105.119 121.094H113.855C116.732 121.094 118.773 120.537 119.981 119.425C121.2 118.3 121.81 116.939 121.81 115.341C121.81 114.11 121.496 112.973 120.869 111.932C120.241 110.878 119.348 110.038 118.188 109.411C117.027 108.771 115.654 108.452 114.068 108.452H105.119V121.094ZM105.119 104.616H113.287C114.613 104.616 115.808 104.356 116.874 103.835C117.951 103.314 118.803 102.58 119.43 101.634C120.07 100.687 120.389 99.5739 120.389 98.2955C120.389 96.6974 119.833 95.3421 118.72 94.2294C117.607 93.1049 115.844 92.5426 113.429 92.5426H105.119V104.616ZM133.235 125V88.6364H155.181V92.5426H137.639V104.83H154.045V108.736H137.639V121.094H155.466V125H133.235ZM183.005 97.7273C182.792 95.928 181.927 94.5312 180.412 93.5369C178.897 92.5426 177.039 92.0455 174.837 92.0455C173.227 92.0455 171.819 92.3059 170.611 92.8267C169.416 93.3475 168.48 94.0637 167.806 94.9751C167.143 95.8866 166.811 96.9223 166.811 98.0824C166.811 99.053 167.042 99.8875 167.504 100.586C167.977 101.272 168.581 101.847 169.315 102.308C170.049 102.758 170.818 103.131 171.623 103.427C172.428 103.711 173.168 103.942 173.843 104.119L177.536 105.114C178.483 105.362 179.536 105.705 180.696 106.143C181.868 106.581 182.987 107.179 184.052 107.937C185.129 108.683 186.017 109.641 186.716 110.813C187.414 111.985 187.763 113.423 187.763 115.128C187.763 117.093 187.248 118.868 186.218 120.455C185.2 122.041 183.709 123.301 181.744 124.237C179.791 125.172 177.417 125.639 174.624 125.639C172.02 125.639 169.765 125.219 167.859 124.379C165.965 123.538 164.474 122.366 163.385 120.863C162.307 119.36 161.698 117.614 161.556 115.625H166.101C166.22 116.998 166.681 118.134 167.486 119.034C168.303 119.922 169.333 120.585 170.576 121.023C171.83 121.449 173.18 121.662 174.624 121.662C176.305 121.662 177.814 121.39 179.152 120.845C180.489 120.289 181.549 119.519 182.33 118.537C183.111 117.543 183.502 116.383 183.502 115.057C183.502 113.849 183.164 112.867 182.49 112.109C181.815 111.352 180.927 110.736 179.826 110.263C178.725 109.789 177.536 109.375 176.257 109.02L171.783 107.741C168.942 106.925 166.693 105.759 165.036 104.244C163.379 102.728 162.55 100.746 162.55 98.2955C162.55 96.2595 163.1 94.4839 164.201 92.9688C165.314 91.4418 166.806 90.258 168.676 89.4176C170.558 88.5653 172.659 88.1392 174.979 88.1392C177.323 88.1392 179.406 88.5594 181.229 89.3999C183.052 90.2285 184.496 91.3648 185.561 92.8089C186.639 94.2531 187.207 95.8925 187.266 97.7273H183.005Z" fill="black"/>
<path d="M53.4148 92.5426H52.4148V93.5426H53.4148V92.5426ZM53.4148 88.6364V87.6364H52.4148V88.6364H53.4148ZM80.6875 88.6364H81.6875V87.6364H80.6875V88.6364ZM80.6875 92.5426V93.5426H81.6875V92.5426H80.6875ZM69.2528 92.5426V91.5426H68.2528V92.5426H69.2528ZM69.2528 125V126H70.2528V125H69.2528ZM64.8494 125H63.8494V126H64.8494V125ZM64.8494 92.5426H65.8494V91.5426H64.8494V92.5426ZM54.4148 92.5426V88.6364H52.4148V92.5426H54.4148ZM53.4148 89.6364H80.6875V87.6364H53.4148V89.6364ZM79.6875 88.6364V92.5426H81.6875V88.6364H79.6875ZM80.6875 91.5426H69.2528V93.5426H80.6875V91.5426ZM68.2528 92.5426V125H70.2528V92.5426H68.2528ZM69.2528 124H64.8494V126H69.2528V124ZM65.8494 125V92.5426H63.8494V125H65.8494ZM64.8494 91.5426H53.4148V93.5426H64.8494V91.5426ZM91.8869 88.6364H92.8869V87.6364H91.8869V88.6364ZM91.8869 125V126H92.8869V125H91.8869ZM87.4835 125H86.4835V126H87.4835V125ZM87.4835 88.6364V87.6364H86.4835V88.6364H87.4835ZM90.8869 88.6364V125H92.8869V88.6364H90.8869ZM91.8869 124H87.4835V126H91.8869V124ZM88.4835 125V88.6364H86.4835V125H88.4835ZM87.4835 89.6364H91.8869V87.6364H87.4835V89.6364ZM100.716 125H99.7159V126H100.716V125ZM100.716 88.6364V87.6364H99.7159V88.6364H100.716ZM119.697 89.9503L119.227 90.833L119.232 90.8356L119.697 89.9503ZM123.372 93.4482L122.495 93.929L122.497 93.932L123.372 93.4482ZM123.745 102.166L122.867 101.687L122.863 101.695L123.745 102.166ZM121.579 104.581L121.029 103.746L121.024 103.749L121.579 104.581ZM118.685 105.895L118.422 104.93L117.685 105.131V105.895H118.685ZM118.685 106.25H117.685V107.188L118.621 107.248L118.685 106.25ZM122.04 107.422L121.506 108.267L122.04 107.422ZM124.757 120.259L125.626 120.754L124.757 120.259ZM120.833 123.722L120.403 122.819L120.833 123.722ZM105.119 121.094H104.119V122.094H105.119V121.094ZM119.981 119.425L120.659 120.16L120.659 120.16L119.981 119.425ZM120.869 111.932L120.009 112.443L120.012 112.448L120.869 111.932ZM118.188 109.411L117.705 110.286L117.712 110.29L118.188 109.411ZM105.119 108.452V107.452H104.119V108.452H105.119ZM105.119 104.616H104.119V105.616H105.119V104.616ZM116.874 103.835L116.438 102.935L116.434 102.937L116.874 103.835ZM119.43 101.634L118.602 101.074L118.597 101.081L119.43 101.634ZM118.72 94.2294L118.009 94.9328L118.013 94.9365L118.72 94.2294ZM105.119 92.5426V91.5426H104.119V92.5426H105.119ZM101.716 125V88.6364H99.7159V125H101.716ZM100.716 89.6364H113.429V87.6364H100.716V89.6364ZM113.429 89.6364C115.854 89.6364 117.769 90.0567 119.227 90.833L120.167 89.0676C118.334 88.092 116.07 87.6364 113.429 87.6364V89.6364ZM119.232 90.8356C120.723 91.6188 121.795 92.6523 122.495 93.929L124.249 92.9673C123.339 91.3084 121.961 90.01 120.162 89.065L119.232 90.8356ZM122.497 93.932C123.215 95.2299 123.58 96.6774 123.58 98.2955H125.58C125.58 96.3624 125.14 94.5784 124.247 92.9643L122.497 93.932ZM123.58 98.2955C123.58 99.7461 123.32 100.858 122.868 101.687L124.623 102.646C125.282 101.439 125.58 99.9698 125.58 98.2955H123.58ZM122.863 101.695C122.392 102.576 121.78 103.252 121.029 103.746L122.128 105.416C123.177 104.726 124.009 103.792 124.627 102.638L122.863 101.695ZM121.024 103.749C120.227 104.28 119.361 104.674 118.422 104.93L118.948 106.86C120.092 106.548 121.155 106.065 122.134 105.413L121.024 103.749ZM117.685 105.895V106.25H119.685V105.895H117.685ZM118.621 107.248C119.537 107.306 120.496 107.629 121.506 108.267L122.574 106.576C121.336 105.794 120.058 105.336 118.748 105.252L118.621 107.248ZM121.506 108.267C122.473 108.878 123.307 109.767 123.995 110.972L125.732 109.98C124.905 108.533 123.857 107.386 122.574 106.576L121.506 108.267ZM123.995 110.972C124.647 112.113 125 113.553 125 115.341H127C127 113.293 126.595 111.491 125.732 109.98L123.995 110.972ZM125 115.341C125 117.006 124.623 118.472 123.888 119.765L125.626 120.754C126.548 119.134 127 117.322 127 115.341H125ZM123.888 119.765C123.178 121.012 122.04 122.038 120.403 122.819L121.263 124.624C123.201 123.7 124.679 122.418 125.626 120.754L123.888 119.765ZM120.403 122.819C118.796 123.585 116.632 124 113.855 124V126C116.807 126 119.295 125.563 121.263 124.624L120.403 122.819ZM113.855 124H100.716V126H113.855V124ZM105.119 122.094H113.855V120.094H105.119V122.094ZM113.855 122.094C116.81 122.094 119.17 121.532 120.659 120.16L119.303 118.689C118.377 119.543 116.653 120.094 113.855 120.094V122.094ZM120.659 120.16C122.074 118.854 122.81 117.23 122.81 115.341H120.81C120.81 116.648 120.326 117.746 119.303 118.69L120.659 120.16ZM122.81 115.341C122.81 113.93 122.448 112.615 121.725 111.416L120.012 112.448C120.544 113.332 120.81 114.289 120.81 115.341H122.81ZM121.728 111.42C121.001 110.2 119.969 109.237 118.663 108.531L117.712 110.29C118.726 110.838 119.481 111.557 120.009 112.443L121.728 111.42ZM118.67 108.535C117.336 107.799 115.79 107.452 114.068 107.452V109.452C115.519 109.452 116.719 109.743 117.705 110.286L118.67 108.535ZM114.068 107.452H105.119V109.452H114.068V107.452ZM104.119 108.452V121.094H106.119V108.452H104.119ZM105.119 105.616H113.287V103.616H105.119V105.616ZM113.287 105.616C114.747 105.616 116.095 105.329 117.313 104.734L116.434 102.937C115.521 103.383 114.479 103.616 113.287 103.616V105.616ZM117.309 104.736C118.539 104.141 119.532 103.291 120.264 102.186L118.597 101.081C118.074 101.87 117.363 102.488 116.438 102.935L117.309 104.736ZM120.259 102.193C121.023 101.061 121.389 99.7486 121.389 98.2955H119.389C119.389 99.3991 119.116 100.312 118.602 101.074L120.259 102.193ZM121.389 98.2955C121.389 96.4368 120.731 94.8258 119.427 93.5223L118.013 94.9365C118.935 95.8584 119.389 96.958 119.389 98.2955H121.389ZM119.431 93.526C118.052 92.132 115.973 91.5426 113.429 91.5426V93.5426C115.715 93.5426 117.163 94.0778 118.009 94.9328L119.431 93.526ZM113.429 91.5426H105.119V93.5426H113.429V91.5426ZM104.119 92.5426V104.616H106.119V92.5426H104.119ZM133.235 125H132.235V126H133.235V125ZM133.235 88.6364V87.6364H132.235V88.6364H133.235ZM155.181 88.6364H156.181V87.6364H155.181V88.6364ZM155.181 92.5426V93.5426H156.181V92.5426H155.181ZM137.639 92.5426V91.5426H136.639V92.5426H137.639ZM137.639 104.83H136.639V105.83H137.639V104.83ZM154.045 104.83H155.045V103.83H154.045V104.83ZM154.045 108.736V109.736H155.045V108.736H154.045ZM137.639 108.736V107.736H136.639V108.736H137.639ZM137.639 121.094H136.639V122.094H137.639V121.094ZM155.466 121.094H156.466V120.094H155.466V121.094ZM155.466 125V126H156.466V125H155.466ZM134.235 125V88.6364H132.235V125H134.235ZM133.235 89.6364H155.181V87.6364H133.235V89.6364ZM154.181 88.6364V92.5426H156.181V88.6364H154.181ZM155.181 91.5426H137.639V93.5426H155.181V91.5426ZM136.639 92.5426V104.83H138.639V92.5426H136.639ZM137.639 105.83H154.045V103.83H137.639V105.83ZM153.045 104.83V108.736H155.045V104.83H153.045ZM154.045 107.736H137.639V109.736H154.045V107.736ZM136.639 108.736V121.094H138.639V108.736H136.639ZM137.639 122.094H155.466V120.094H137.639V122.094ZM154.466 121.094V125H156.466V121.094H154.466ZM155.466 124H133.235V126H155.466V124ZM183.005 97.7273L182.012 97.8449L182.116 98.7273H183.005V97.7273ZM180.412 93.5369L179.864 94.373L180.412 93.5369ZM170.611 92.8267L170.215 91.9085L170.212 91.9099L170.611 92.8267ZM167.806 94.9751L167.002 94.3801L166.997 94.387L167.806 94.9751ZM167.504 100.586L166.67 101.137L166.675 101.146L166.681 101.154L167.504 100.586ZM169.315 102.308L168.783 103.155L168.792 103.161L169.315 102.308ZM171.623 103.427L171.278 104.366L171.29 104.37L171.623 103.427ZM173.843 104.119L174.103 103.154L174.097 103.152L173.843 104.119ZM177.536 105.114L177.276 106.079L177.282 106.081L177.536 105.114ZM180.696 106.143L180.343 107.079L180.346 107.08L180.696 106.143ZM184.052 107.937L183.473 108.752L183.483 108.759L184.052 107.937ZM186.716 110.813L187.575 110.301V110.301L186.716 110.813ZM186.218 120.455L185.38 119.91L185.377 119.914L186.218 120.455ZM181.744 124.237L181.314 123.334L181.312 123.335L181.744 124.237ZM167.859 124.379L167.453 125.293L167.456 125.294L167.859 124.379ZM163.385 120.863L162.572 121.445L162.575 121.45L163.385 120.863ZM161.556 115.625V114.625H160.482L160.558 115.696L161.556 115.625ZM166.101 115.625L167.098 115.539L167.019 114.625H166.101V115.625ZM167.486 119.034L166.741 119.701L166.75 119.711L167.486 119.034ZM170.576 121.023L170.243 121.966L170.254 121.97L170.576 121.023ZM179.152 120.845L179.529 121.771L179.536 121.768L179.152 120.845ZM182.33 118.537L183.113 119.159L183.116 119.155L182.33 118.537ZM182.49 112.109L183.236 111.444L182.49 112.109ZM179.826 110.263L179.431 111.181L179.826 110.263ZM176.257 109.02L175.983 109.981L175.99 109.983L176.257 109.02ZM171.783 107.741L171.507 108.703L171.508 108.703L171.783 107.741ZM165.036 104.244L164.361 104.982L165.036 104.244ZM164.201 92.9688L163.393 92.3798L163.392 92.381L164.201 92.9688ZM168.676 89.4176L169.086 90.3298L169.088 90.3286L168.676 89.4176ZM181.229 89.3999L180.81 90.308L180.815 90.3102L181.229 89.3999ZM185.561 92.8089L184.757 93.4026L184.76 93.4068L185.561 92.8089ZM187.266 97.7273V98.7273H188.299L188.265 97.695L187.266 97.7273ZM183.998 97.6097C183.75 95.517 182.723 93.8572 180.961 92.7009L179.864 94.373C181.132 95.2053 181.833 96.3391 182.012 97.8449L183.998 97.6097ZM180.961 92.7009C179.251 91.5785 177.191 91.0455 174.837 91.0455V93.0455C176.886 93.0455 178.544 93.5067 179.864 94.373L180.961 92.7009ZM174.837 91.0455C173.121 91.0455 171.572 91.323 170.215 91.9085L171.007 93.7449C172.065 93.2887 173.334 93.0455 174.837 93.0455V91.0455ZM170.212 91.9099C168.88 92.4901 167.796 93.3079 167.002 94.3802L168.609 95.5701C169.165 94.8195 169.951 94.205 171.011 93.7435L170.212 91.9099ZM166.997 94.387C166.206 95.4746 165.811 96.7176 165.811 98.0824H167.811C167.811 97.1271 168.08 96.2986 168.614 95.5633L166.997 94.387ZM165.811 98.0824C165.811 99.2171 166.084 100.251 166.67 101.137L168.338 100.035C168.001 99.5245 167.811 98.889 167.811 98.0824H165.811ZM166.681 101.154C167.234 101.956 167.938 102.624 168.783 103.155L169.847 101.462C169.224 101.069 168.721 100.589 168.327 100.018L166.681 101.154ZM168.792 103.161C169.582 103.645 170.411 104.047 171.278 104.365L171.968 102.488C171.225 102.215 170.515 101.871 169.838 101.456L168.792 103.161ZM171.29 104.37C172.116 104.661 172.882 104.901 173.588 105.086L174.097 103.152C173.454 102.983 172.741 102.761 171.956 102.484L171.29 104.37ZM173.583 105.085L177.276 106.079L177.796 104.148L174.103 103.154L173.583 105.085ZM177.282 106.081C178.188 106.319 179.208 106.65 180.343 107.079L181.05 105.208C179.865 104.761 178.778 104.406 177.79 104.146L177.282 106.081ZM180.346 107.08C181.433 107.486 182.475 108.042 183.473 108.752L184.632 107.122C183.499 106.316 182.303 105.677 181.046 105.207L180.346 107.08ZM183.483 108.759C184.438 109.42 185.228 110.271 185.857 111.325L187.575 110.301C186.806 109.012 185.821 107.945 184.621 107.115L183.483 108.759ZM185.857 111.325C186.442 112.308 186.763 113.559 186.763 115.128H188.763C188.763 113.288 188.386 111.662 187.575 110.301L185.857 111.325ZM186.763 115.128C186.763 116.907 186.3 118.492 185.38 119.91L187.057 120.999C188.196 119.244 188.763 117.278 188.763 115.128H186.763ZM185.377 119.914C184.474 121.321 183.137 122.466 181.314 123.334L182.174 125.139C184.281 124.137 185.926 122.761 187.06 120.995L185.377 119.914ZM181.312 123.335C179.527 124.189 177.31 124.639 174.624 124.639V126.639C177.525 126.639 180.055 126.154 182.176 125.138L181.312 123.335ZM174.624 124.639C172.125 124.639 170.014 124.236 168.263 123.464L167.456 125.294C169.516 126.202 171.915 126.639 174.624 126.639V124.639ZM168.265 123.465C166.513 122.687 165.168 121.621 164.194 120.276L162.575 121.45C163.779 123.112 165.417 124.389 167.453 125.293L168.265 123.465ZM164.197 120.28C163.236 118.939 162.683 117.373 162.553 115.554L160.558 115.696C160.712 117.854 161.379 119.78 162.572 121.445L164.197 120.28ZM161.556 116.625H166.101V114.625H161.556V116.625ZM165.105 115.711C165.239 117.268 165.772 118.618 166.741 119.701L168.231 118.367C167.591 117.651 167.2 116.728 167.098 115.539L165.105 115.711ZM166.75 119.711C167.688 120.73 168.861 121.479 170.243 121.966L170.908 120.08C169.805 119.691 168.918 119.114 168.222 118.357L166.75 119.711ZM170.254 121.97C171.621 122.434 173.08 122.662 174.624 122.662V120.662C173.279 120.662 172.04 120.464 170.897 120.076L170.254 121.97ZM174.624 122.662C176.413 122.662 178.053 122.372 179.529 121.771L178.775 119.919C177.575 120.407 176.196 120.662 174.624 120.662V122.662ZM179.536 121.768C181.005 121.157 182.211 120.293 183.113 119.159L181.547 117.915C180.886 118.745 179.973 119.42 178.768 119.922L179.536 121.768ZM183.116 119.155C184.043 117.975 184.502 116.595 184.502 115.057H182.502C182.502 116.17 182.179 117.11 181.544 117.919L183.116 119.155ZM184.502 115.057C184.502 113.653 184.104 112.419 183.236 111.444L181.743 112.774C182.225 113.315 182.502 114.045 182.502 115.057H184.502ZM183.236 111.444C182.448 110.559 181.433 109.865 180.221 109.344L179.431 111.181C180.422 111.607 181.182 112.144 181.743 112.774L183.236 111.444ZM180.221 109.344C179.075 108.851 177.842 108.422 176.525 108.056L175.99 109.983C177.229 110.328 178.376 110.728 179.431 111.181L180.221 109.344ZM176.532 108.058L172.058 106.78L171.508 108.703L175.983 109.981L176.532 108.058ZM172.059 106.78C169.322 105.993 167.224 104.889 165.711 103.506L164.361 104.982C166.162 106.628 168.563 107.856 171.507 108.703L172.059 106.78ZM165.711 103.506C164.281 102.198 163.55 100.494 163.55 98.2955H161.55C161.55 100.998 162.476 103.259 164.361 104.982L165.711 103.506ZM163.55 98.2955C163.55 96.4512 164.045 94.8858 165.01 93.5565L163.392 92.381C162.156 94.082 161.55 96.0677 161.55 98.2955H163.55ZM165.01 93.5577C166.011 92.1831 167.36 91.1052 169.086 90.3298L168.266 88.5055C166.251 89.4109 164.617 90.7005 163.393 92.3798L165.01 93.5577ZM169.088 90.3286C170.826 89.5418 172.784 89.1392 174.979 89.1392V87.1392C172.534 87.1392 170.29 87.5889 168.263 88.5067L169.088 90.3286ZM174.979 89.1392C177.202 89.1392 179.139 89.5374 180.81 90.308L181.648 88.4917C179.673 87.5814 177.443 87.1392 174.979 87.1392V89.1392ZM180.815 90.3102C182.501 91.0766 183.804 92.111 184.757 93.4026L186.366 92.2153C185.188 90.6187 183.603 89.3803 181.643 88.4895L180.815 90.3102ZM184.76 93.4068C185.712 94.6838 186.214 96.125 186.266 97.7595L188.265 97.695C188.2 95.6601 187.565 93.8223 186.363 92.2111L184.76 93.4068ZM187.266 96.7273H183.005V98.7273H187.266V96.7273Z" fill="black"/>
</g>
<g style="mix-blend-mode:color-burn">
<path d="M53.4148 129.543V125.636H80.6875V129.543H69.2529V162H64.8494V129.543H53.4148ZM91.8869 125.636V162H87.4835V125.636H91.8869ZM100.716 162V125.636H113.429C115.962 125.636 118.051 126.074 119.697 126.95C121.342 127.814 122.567 128.98 123.372 130.448C124.177 131.904 124.58 133.52 124.58 135.295C124.58 136.858 124.301 138.148 123.745 139.166C123.201 140.184 122.478 140.989 121.579 141.581C120.691 142.173 119.726 142.611 118.685 142.895V143.25C119.797 143.321 120.916 143.712 122.04 144.422C123.165 145.132 124.106 146.15 124.864 147.476C125.621 148.802 126 150.423 126 152.341C126 154.164 125.586 155.803 124.757 157.259C123.929 158.715 122.621 159.869 120.833 160.722C119.046 161.574 116.72 162 113.855 162H100.716ZM105.119 158.094H113.855C116.732 158.094 118.773 157.537 119.981 156.425C121.2 155.3 121.81 153.939 121.81 152.341C121.81 151.11 121.496 149.973 120.869 148.932C120.241 147.878 119.348 147.038 118.188 146.411C117.027 145.771 115.654 145.452 114.068 145.452H105.119V158.094ZM105.119 141.616H113.287C114.613 141.616 115.808 141.356 116.874 140.835C117.951 140.314 118.803 139.58 119.43 138.634C120.07 137.687 120.389 136.574 120.389 135.295C120.389 133.697 119.833 132.342 118.72 131.229C117.607 130.105 115.844 129.543 113.429 129.543H105.119V141.616ZM133.235 162V125.636H155.181V129.543H137.639V141.83H154.045V145.736H137.639V158.094H155.466V162H133.235ZM183.005 134.727C182.792 132.928 181.927 131.531 180.412 130.537C178.897 129.543 177.039 129.045 174.837 129.045C173.227 129.045 171.819 129.306 170.611 129.827C169.416 130.348 168.48 131.064 167.806 131.975C167.143 132.887 166.811 133.922 166.811 135.082C166.811 136.053 167.042 136.888 167.504 137.586C167.977 138.272 168.581 138.847 169.315 139.308C170.049 139.758 170.818 140.131 171.623 140.427C172.428 140.711 173.168 140.942 173.843 141.119L177.536 142.114C178.483 142.362 179.536 142.705 180.696 143.143C181.868 143.581 182.987 144.179 184.052 144.937C185.129 145.683 186.017 146.641 186.716 147.813C187.414 148.985 187.763 150.423 187.763 152.128C187.763 154.093 187.248 155.868 186.218 157.455C185.2 159.041 183.709 160.301 181.744 161.237C179.791 162.172 177.418 162.639 174.624 162.639C172.02 162.639 169.765 162.219 167.859 161.379C165.965 160.538 164.474 159.366 163.385 157.863C162.307 156.36 161.698 154.614 161.556 152.625H166.101C166.22 153.998 166.681 155.134 167.486 156.034C168.303 156.922 169.333 157.585 170.576 158.023C171.83 158.449 173.18 158.662 174.624 158.662C176.305 158.662 177.814 158.39 179.152 157.845C180.489 157.289 181.549 156.519 182.33 155.537C183.111 154.543 183.502 153.383 183.502 152.057C183.502 150.849 183.164 149.867 182.49 149.109C181.815 148.352 180.927 147.736 179.826 147.263C178.726 146.789 177.536 146.375 176.257 146.02L171.783 144.741C168.942 143.925 166.693 142.759 165.036 141.244C163.379 139.728 162.55 137.746 162.55 135.295C162.55 133.259 163.101 131.484 164.201 129.969C165.314 128.442 166.806 127.258 168.676 126.418C170.558 125.565 172.659 125.139 174.979 125.139C177.323 125.139 179.406 125.559 181.229 126.4C183.052 127.228 184.496 128.365 185.561 129.809C186.639 131.253 187.207 132.893 187.266 134.727L183.005 134.727Z" fill="black"/>
</g>
<defs>
<filter id="filter0_d_0_1" x="49.4148" y="88.1392" width="142.348" height="45.5" filterUnits="userSpaceOnUse" color-interpolation-filters="sRGB">
<feFlood flood-opacity="0" result="BackgroundImageFix"/>
<feColorMatrix in="SourceAlpha" type="matrix" values="0 0 0 0 0 0 0 0 0 0 0 0 0 0 0 0 0 0 127 0" result="hardAlpha"/>
<feOffset dy="4"/>
<feGaussianBlur stdDeviation="2"/>
<feComposite in2="hardAlpha" operator="out"/>
<feColorMatrix type="matrix" values="0 0 0 0 0 0 0 0 0 0 0 0 0 0 0 0 0 0 0.25 0"/>
<feBlend mode="normal" in2="BackgroundImageFix" result="effect1_dropShadow_0_1"/>
<feBlend mode="normal" in="SourceGraphic" in2="effect1_dropShadow_0_1" result="shape"/>
</filter>
</defs>
</svg>
